<svg width="25" height="20" viewBox="0 0 25 20" fill="none" xmlns="http://www.w3.org/2000/svg">
<g clip-path="url(#clip0_1_2)">
<rect width="25" height="20" fill="white"/>
<path d="M2.5 0.5H22.5C23.0304 0.5 23.5389 0.710862 23.9141 1.08594C24.2891 1.46101 24.5 1.96957 24.5 2.5V17.5C24.5 18.0304 24.2891 18.5389 23.9141 18.9141C23.5389 19.2891 23.0304 19.5 22.5 19.5H2.5C1.96957 19.5 1.46101 19.2891 1.08594 18.9141C0.710862 18.5389 0.5 18.0304 0.5 17.5V2.5C0.5 1.96957 0.710867 1.461 1.08594 1.08594C1.461 0.710867 1.96957 0.5 2.5 0.5ZM22.1709 3.78516L12.9941 11.8145V11.8154C12.8573 11.9352 12.6818 12.001 12.5 12.001C12.3182 12.001 12.1427 11.9352 12.0059 11.8154V11.8145L2.8291 3.78516L2 3.05957V18H23V3.05957L22.1709 3.78516ZM4.06934 2.87598L12.1709 9.96484L12.5 10.2529L12.8291 9.96484L20.9307 2.87598L21.9316 2H3.06836L4.06934 2.87598Z" fill="#B5B8B9" stroke="#00AEEF"/>
</g>
<defs>
<clipPath id="clip0_1_2">
<rect width="25" height="20" fill="white"/>
</clipPath>
</defs>
</svg>
